#!OML:ASF F:\VICON\USERDATA\INSTALL\rory3\rory3.ASF
:FULLY-SPECIFIED
:DEGREES
466
root -0.221712 16.9507 17.1064 -159.034 -27.6774 -176.682
lowerback -13.7275 2.40737 5.13251
upperback -6.39841 1.8211 1.44056
thorax 1.07762 0.527727 -1.12702
lowerneck -7.11078 3.1031 -0.232281
upperneck 45.6828 -3.05427 2.15237
head 18.5057 -3.01387 -0.103597
rclavicle 5.27276e-014 3.33958e-014
rhumerus -65.438 32.2039 -110.707
rradius 36.0118
rwrist -39.523
rhand 26.0714 2.68367
rfingers 7.12502
rthumb 50.1429 -18.4637
lclavicle 5.27276e-014 3.33958e-014
lhumerus -62.016 -22.0905 102.143
lradius 39.7439
lwrist 20.3795
lhand 25.7211 21.2965
lfingers 7.12502
lthumb 49.8224 42.612
rfemur -30.4015 2.99286 34.7271
rtibia 27.792
rfoot -37.4797 -30.7724
rtoes 36.4013
lfemur -21.8971 29.9398 -23.199
ltibia 52.3603
lfoot 37.2885 25.6897
ltoes 4.19082
467
root -0.22508 16.9511 17.1059 -158.987 -27.7192 -176.714
lowerback -14.5277 2.1995 4.92167
upperback -5.80624 1.52689 1.74918
thorax 2.09824 0.43491 -0.708167
lowerneck -8.01734 3.1518 -0.693375
upperneck 45.6909 -2.70447 2.1276
head 18.748 -2.90201 0.0278026
rclavicle -2.64384e-014 -1.82882e-014
rhumerus -64.6951 33.3675 -110.236
rradius 36.2549
rwrist -39.9348
rhand 26.8096 1.53904
rfingers 7.12502
rthumb 50.8172 -19.2438
lclavicle -2.64384e-014 -1.82882e-014
lhumerus -60.6432 -21.5029 101.67
lradius 39.4851
lwrist 19.9625
lhand 25.9916 20.919
lfingers 7.12502
lthumb 50.0699 42.105
rfemur -30.4447 3.00541 34.6591
rtibia 27.7623
rfoot -37.5531 -30.8722
rtoes 36.0582
lfemur -21.8916 29.8551 -23.2442
ltibia 52.2252
lfoot 37.3275 26.0297
ltoes 5.10668
468
root -0.227792 16.9504 17.1045 -159.029 -27.7793 -176.64
lowerback -14.8144 2.19593 4.98853
upperback -5.65763 1.49213 1.80378
thorax 2.40618 0.428365 -0.686499
lowerneck -8.27169 3.16294 -0.875478
upperneck 45.7821 -2.74717 2.35924
head 18.8879 -2.91565 0.162
rclavicle -8.79622e-015 4.05521e-014
rhumerus -64.1983 33.3599 -109.812
rradius 36.2175
rwrist -39.6889
rhand 26.6294 1.96471
rfingers 7.12502
rthumb 50.6528 -18.9084
lclavicle -8.79622e-015 4.05521e-014
lhumerus -60.3659 -21.5678 101.595
lradius 39.5705
lwrist 19.7632
lhand 25.9992 20.7413
lfingers 7.12502
lthumb 50.0769 41.9235
rfemur -30.4455 2.92112 34.7357
rtibia 27.7632
rfoot -37.4435 -30.9542
rtoes 35.8814
lfemur -21.7782 29.8005 -23.1234
ltibia 52.0708
lfoot 36.043 28.3483
ltoes 10.0523
469
root -0.225649 16.9489 17.1064 -159.036 -27.7522 -176.637
lowerback -14.7574 2.33709 5.0555
upperback -5.82788 1.67239 1.63443
thorax 2.21172 0.503413 -0.874234
lowerneck -7.97025 3.11206 -0.42165
upperneck 45.8282 -2.99708 2.3072
head 18.8424 -2.96296 0.00865593
rclavicle -2.38542e-014 -3.97569e-016
rhumerus -64.3962 33.0227 -110.188
rradius 36.2324
rwrist -39.7875
rhand 26.0537 2.23107
rfingers 7.12502
rthumb 50.1268 -18.9248
lclavicle -2.38542e-014 -3.97569e-016
lhumerus -60.7452 -22.102 101.752
lradius 39.7865
lwrist 19.6867
lhand 26.1397 21.2527
lfingers 7.12502
lthumb 50.2054 42.3669
rfemur -30.4139 2.88247 34.7485
rtibia 27.7262
rfoot -37.4897 -30.7758
rtoes 36.4486
lfemur -21.7482 29.9253 -23.1052
ltibia 51.9855
lfoot 35.6136 29.3704
ltoes 12.015
470
root -0.223826 16.9498 17.1068 -159.066 -27.7366 -176.616
lowerback -14.7922 2.36888 5.04403
upperback -5.91696 1.70674 1.60427
thorax 2.13896 0.512631 -0.893923
lowerneck -7.65025 3.09136 0.170334
upperneck 45.7035 -2.99406 1.91447
head 18.6579 -2.9131 -0.281684
rclavicle -3.58309e-014 6.75868e-015
rhumerus -64.849 33.2493 -110.849
rradius 36.352
rwrist -40.3451
rhand 25.6746 2.10312
rfingers 7.12502
rthumb 49.7798 -19.2345
lclavicle -3.58309e-014 6.75868e-015
lhumerus -60.9459 -22.237 101.857
lradius 39.9583
lwrist 19.4831
lhand 26.1073 21.9736
lfingers 7.12502
lthumb 50.1758 43.1035
rfemur -30.364 2.84644 34.7912
rtibia 27.6813
rfoot -37.3447 -30.8827
rtoes 36.3032
lfemur -21.7239 29.9967 -23.0594
ltibia 51.9659
lfoot 35.0687 30.2118
ltoes 13.8095
471
root -0.223 16.9492 17.1064 -159.101 -27.7599 -176.504
lowerback -15.0273 2.37261 5.02709
upperback -5.8694 1.68431 1.73199
thorax 2.30921 0.503847 -0.74839
lowerneck -7.58752 3.04616 0.251328
upperneck 45.5566 -2.94544 1.7372
head 18.537 -2.89099 -0.36518
rclavicle -1.09332e-014 -1.59028e-015
rhumerus -64.8108 33.4171 -110.757
rradius 36.352
rwrist -40.4226
rhand 25.9898 1.89475
rfingers 7.12502
rthumb 50.0683 -19.2921
lclavicle -1.09332e-014 -1.59028e-015
lhumerus -60.8705 -22.1858 101.95
lradius 40.1053
lwrist 19.156
lhand 26.1103 21.9199
lfingers 7.12502
lthumb 50.1786 43.0484
rfemur -30.3391 2.92813 34.8914
rtibia 27.6345
rfoot -37.4238 -30.8796
rtoes 36.3269
lfemur -21.7978 30.0044 -22.9501
ltibia 52.0332
lfoot 34.7238 30.6481
ltoes 15.0366
472
root -0.221465 16.9475 17.1081 -159.072 -27.7609 -176.535
lowerback -14.8585 2.51625 5.25648
upperback -6.04285 1.86197 1.46194
thorax 2.06032 0.575528 -1.13589
lowerneck -7.67296 3.00619 0.419971
upperneck 45.6891 -3.19919 1.94952
head 18.6616 -2.94521 -0.344924
rclavicle -2.66868e-014 2.22639e-014
rhumerus -64.6292 32.7477 -110.797
rradius 36.2011
rwrist -40.0987
rhand 26.0522 2.04159
rfingers 7.12502
rthumb 50.1254 -19.1151
lclavicle -2.66868e-014 2.22639e-014
lhumerus -61.2532 -22.7486 102.006
lradius 40.3474
lwrist 18.9373
lhand 26.2458 21.7501
lfingers 7.12502
lthumb 50.3024 42.8126
rfemur -30.323 2.95318 34.859
rtibia 27.6013
rfoot -37.5076 -30.7595
rtoes 36.557
lfemur -21.8824 30.0617 -22.9968
ltibia 52.1168
lfoot 35.0827 30.1849
ltoes 14.4821
473
root -0.221209 16.9449 17.109 -159.042 -27.7938 -176.572
lowerback -14.6212 2.60156 5.36586
upperback -6.32284 1.96703 1.32978
thorax 1.65285 0.60067 -1.32765
lowerneck -7.42745 2.98162 0.311022
upperneck 45.7999 -3.42237 2.21092
head 18.6833 -3.05 -0.243277
rclavicle 1.27968e-014 -1.66979e-014
rhumerus -64.9741 32.3496 -111.124
rradius 36.1716
rwrist -39.7295
rhand 25.7039 2.34682
rfingers 7.12502
rthumb 49.8066 -18.9769
lclavicle 1.27968e-014 -1.66979e-014
lhumerus -61.6848 -22.9231 102.162
lradius 40.3399
lwrist 18.4162
lhand 26.2077 21.4468
lfingers 7.12502
lthumb 50.2676 42.5279
rfemur -30.3498 2.90067 34.8231
rtibia 27.6026
rfoot -37.5929 -30.6295
rtoes 36.5546
lfemur -21.9647 30.1276 -23.0412
ltibia 52.1957
lfoot 35.7509 29.2415
ltoes 12.8165
474
root -0.222662 16.9433 17.1075 -159.005 -27.8416 -176.621
lowerback -14.304 2.58372 5.3376
upperback -6.7195 1.94171 1.34468
thorax 1.0636 0.550517 -1.31296
lowerneck -6.94567 3.02897 0.0519879
upperneck 45.932 -3.51169 2.40853
head 18.6491 -3.15603 -0.123151
rclavicle 3.14328e-014 4.21423e-014
rhumerus -65.5072 32.0817 -111.28
rradius 36.1651
rwrist -39.2186
rhand 26.0245 2.32514
rfingers 7.12502
rthumb 50.1 -18.8449
lclavicle 3.14328e-014 4.21423e-014
lhumerus -62.1785 -22.7262 102.464
lradius 39.971
lwrist 17.7448
lhand 26.0457 20.7149
lfingers 7.12502
lthumb 50.1195 41.8747
rfemur -30.402 2.68503 34.8374
rtibia 27.6831
rfoot -37.5047 -30.6004
rtoes 36.2827
lfemur -22.013 30.0891 -23.1043
ltibia 52.2288
lfoot 36.1241 28.6877
ltoes 11.5638
